<svg xmlns="http://www.w3.org/2000/svg" version="1.1" xmlns:xlink="http://www.w3.org/1999/xlink" xmlns:svgjs="http://svgjs.dev/svgjs" width="1000" height="154" viewBox="0 0 1000 154"><g transform="matrix(1,0,0,1,-0.6060606060606233,-0.38349805367749923)"><svg viewBox="0 0 396 61" data-background-color="#f9f9f9" preserveAspectRatio="xMidYMid meet" height="154" width="1000" xmlns="http://www.w3.org/2000/svg" xmlns:xlink="http://www.w3.org/1999/xlink"><g id="tight-bounds" transform="matrix(1,0,0,1,0.2400000000000091,0.15190507320991742)"><svg viewBox="0 0 395.52 60.69618985358018" height="60.69618985358018" width="395.52"><g><svg viewBox="0 0 482.1494432510052 73.99027645975171" height="60.69618985358018" width="395.52"><g transform="matrix(1,0,0,1,0,10.225863099719668)"><svg viewBox="0 0 395.52 53.53855026031238" height="53.53855026031238" width="395.52"><g><svg viewBox="0 0 395.52 53.53855026031238" height="53.53855026031238" width="395.52"><g><svg viewBox="0 0 395.52 53.53855026031238" height="53.53855026031238" width="395.52"><g transform="matrix(1,0,0,1,0,0)"><svg width="395.52" viewBox="-0.35 -33.2 249.68 33.800000000000004" height="53.53855026031238" data-palette-color="#030303"><path d="M18.35 0L9.5 0-0.35-32.6 7.45-32.6 11.35-17.4Q12.1-14.7 12.68-12.18 13.25-9.65 14-6.95L14-6.95 14.2-6.95Q14.9-9.65 15.5-12.18 16.1-14.7 16.8-17.4L16.8-17.4 20.65-32.6 28.15-32.6 18.35 0ZM43.65 0L34.55 0 28.5-32.6 36.05-32.6 38.3-17.35Q38.6-14.8 38.95-12.23 39.3-9.65 39.6-7.05L39.6-7.05 39.8-7.05Q40.3-9.65 40.77-12.23 41.25-14.8 41.75-17.35L41.75-17.35 45.25-32.6 51.5-32.6 55-17.35Q55.5-14.85 55.97-12.28 56.45-9.7 56.95-7.05L56.95-7.05 57.15-7.05Q57.5-9.7 57.82-12.25 58.15-14.8 58.5-17.35L58.5-17.35 60.75-32.6 67.8-32.6 62 0 52.75 0 49.55-14.8Q49.15-16.7 48.82-18.63 48.5-20.55 48.25-22.35L48.25-22.35 48.05-22.35Q47.75-20.55 47.42-18.63 47.1-16.7 46.7-14.8L46.7-14.8 43.65 0ZM85.9 0.6L85.9 0.6Q82.8 0.6 80.05-0.48 77.3-1.55 75.22-3.65 73.15-5.75 71.95-8.88 70.75-12 70.75-16.1L70.75-16.1Q70.75-20.15 72-23.33 73.25-26.5 75.35-28.7 77.45-30.9 80.25-32.05 83.05-33.2 86.15-33.2L86.15-33.2Q89.3-33.2 91.8-31.93 94.3-30.65 95.95-28.95L95.95-28.95 92.05-24.25Q90.8-25.4 89.42-26.13 88.05-26.85 86.3-26.85L86.3-26.85Q84.65-26.85 83.17-26.13 81.7-25.4 80.62-24.05 79.55-22.7 78.92-20.75 78.3-18.8 78.3-16.35L78.3-16.35Q78.3-11.3 80.45-8.53 82.6-5.75 86.2-5.75L86.2-5.75Q88.2-5.75 89.77-6.63 91.35-7.5 92.55-8.8L92.55-8.8 96.45-4.2Q92.35 0.6 85.9 0.6ZM124.99 0.6L124.99 0.6Q121.89 0.6 119.14-0.48 116.39-1.55 114.32-3.65 112.24-5.75 111.04-8.88 109.84-12 109.84-16.1L109.84-16.1Q109.84-20.15 111.09-23.33 112.34-26.5 114.44-28.7 116.54-30.9 119.34-32.05 122.14-33.2 125.24-33.2L125.24-33.2Q128.39-33.2 130.89-31.93 133.39-30.65 135.04-28.95L135.04-28.95 131.14-24.25Q129.89-25.4 128.52-26.13 127.14-26.85 125.39-26.85L125.39-26.85Q123.74-26.85 122.27-26.13 120.79-25.4 119.72-24.05 118.64-22.7 118.02-20.75 117.39-18.8 117.39-16.35L117.39-16.35Q117.39-11.3 119.54-8.53 121.69-5.75 125.29-5.75L125.29-5.75Q127.29-5.75 128.87-6.63 130.44-7.5 131.64-8.8L131.64-8.8 135.54-4.2Q131.44 0.6 124.99 0.6ZM147.84 0L140.49 0 140.49-32.6 147.84-32.6 147.84-20.05 159.09-20.05 159.09-32.6 166.49-32.6 166.49 0 159.09 0 159.09-13.6 147.84-13.6 147.84 0ZM187.44 0.6L187.44 0.6Q184.14 0.6 181.41-0.58 178.69-1.75 176.74-3.95 174.79-6.15 173.71-9.3 172.64-12.45 172.64-16.45L172.64-16.45Q172.64-20.45 173.71-23.58 174.79-26.7 176.74-28.83 178.69-30.95 181.41-32.08 184.14-33.2 187.44-33.2L187.44-33.2Q190.74-33.2 193.46-32.08 196.19-30.95 198.14-28.8 200.09-26.65 201.16-23.53 202.24-20.4 202.24-16.45L202.24-16.45Q202.24-12.45 201.16-9.3 200.09-6.15 198.14-3.95 196.19-1.75 193.46-0.58 190.74 0.6 187.44 0.6ZM187.44-5.75L187.44-5.75Q190.79-5.75 192.74-8.63 194.69-11.5 194.69-16.45L194.69-16.45Q194.69-21.35 192.74-24.1 190.79-26.85 187.44-26.85L187.44-26.85Q184.09-26.85 182.14-24.1 180.19-21.35 180.19-16.45L180.19-16.45Q180.19-11.5 182.14-8.63 184.09-5.75 187.44-5.75ZM215.73 0L208.38 0 208.38-32.6 215.73-32.6 215.73 0ZM230.78 0L223.43 0 223.43-32.6 235.18-32.6Q237.78-32.6 240.06-32.1 242.33-31.6 244.03-30.43 245.73-29.25 246.73-27.3 247.73-25.35 247.73-22.45L247.73-22.45Q247.73-18.85 246.16-16.53 244.58-14.2 241.93-13.05L241.93-13.05 249.33 0 241.08 0 234.83-11.75 230.78-11.75 230.78 0ZM230.78-26.75L230.78-17.6 234.58-17.6Q237.48-17.6 239.01-18.82 240.53-20.05 240.53-22.45L240.53-22.45Q240.53-24.85 239.01-25.8 237.48-26.75 234.58-26.75L234.58-26.75 230.78-26.75Z" opacity="1" transform="matrix(1,0,0,1,0,0)" fill="#030303" class="undefined-text-0" data-fill-palette-color="primary" id="text-0"></path></svg></g></svg></g></svg></g></svg></g><g transform="matrix(1,0,0,1,408.1591667912535,0)"><svg viewBox="0 0 73.99027645975171 73.99027645975171" height="73.99027645975171" width="73.99027645975171"><g data-palette-color="#030303"><rect width="20.2240088989988" height="73.99027645975171" fill="#030303" stroke="transparent" data-fill-palette-color="accent" x="0" fill-opacity="1"></rect><rect width="20.2240088989988" height="73.99027645975171" fill="#030303" stroke="transparent" data-fill-palette-color="accent" x="24.663425486583904" fill-opacity="0.75"></rect><rect width="20.2240088989988" height="73.99027645975171" fill="#030303" stroke="transparent" data-fill-palette-color="accent" x="49.32685097316781" fill-opacity="0.5"></rect></g></svg></g></svg></g><defs></defs></svg><rect width="395.52" height="60.69618985358018" fill="none" stroke="none" visibility="hidden"></rect></g></svg></g></svg>